<svg width="96" height="96" viewBox="0 0 96 96" fill="none" xmlns="http://www.w3.org/2000/svg">
<path d="M83.2516 86.2758V87.9291C83.2516 90.1383 81.4608 91.9291 79.2516 91.9291H26.3467H21.5525H15.6953C13.4862 91.9291 11.6953 90.1383 11.6953 87.9291V8.13135C11.6953 5.92221 13.4862 4.13135 15.6953 4.13135H21.5525H26.3467H79.2516C81.4608 4.13135 83.2516 5.92221 83.2516 8.13135V51.9964V86.2758Z" fill="#FFE8D6"/>
<path d="M73.822 86.0062C82.9302 86.0062 90.3139 78.6226 90.3139 69.5144C90.3139 60.4061 82.9302 53.0225 73.822 53.0225C64.7137 53.0225 57.3301 60.4061 57.3301 69.5144C57.3301 78.6226 64.7137 86.0062 73.822 86.0062Z" fill="#FFB401" stroke="white" stroke-width="3"/>
<path d="M72.2036 45.0379L63.0129 38.1046L53.8223 45.0379V4.0708H72.2036V45.0379Z" fill="#FF7707"/>
<path d="M7.71484 8.07081C7.71484 5.86167 9.5057 4.0708 11.7148 4.0708H17.9127V91.9293H11.7148C9.5057 91.9293 7.71484 90.1385 7.71484 87.9293V8.07081Z" fill="#325873"/>
<path d="M71.3039 76.2449C70.9459 76.2449 70.6027 76.1029 70.3494 75.8496L64.6239 70.124C64.0967 69.5967 64.0967 68.7423 64.624 68.2153C65.1512 67.6882 66.0057 67.6883 66.5326 68.2155L71.3039 72.987L81.1112 63.1794C81.6386 62.6524 82.4929 62.6524 83.0199 63.1794C83.5471 63.7067 83.5471 64.5611 83.0199 65.0881L72.2581 75.8499C72.0052 76.1027 71.662 76.2449 71.3039 76.2449Z" fill="white"/>
</svg>
