<svg width="96" height="96" viewBox="0 0 96 96" fill="none" xmlns="http://www.w3.org/2000/svg">
<path d="M48 96C41.2089 96 35.5268 91.1608 34.2201 84.75H2.8125C1.25925 84.75 0 83.4907 0 81.9375V32.8125C0 31.2592 1.25925 30 2.8125 30H93.1875C94.7408 30 96 31.2592 96 32.8125V81.9375C96 83.4907 94.7408 84.75 93.1875 84.75H61.7799C60.4733 91.1608 54.7911 96 48 96Z" fill="#FFE9D6"/>
<path d="M93.1875 30H48V96C54.7911 96 60.4733 91.1608 61.7799 84.75H93.1875C94.7407 84.75 96 83.4907 96 81.9375V32.8125C96 31.2592 94.7407 30 93.1875 30Z" fill="#FFDDC3"/>
<path d="M81.9375 22.5H59.25C54.6549 22.5 50.5678 24.7151 48 28.1338C45.4322 24.7151 41.3451 22.5 36.75 22.5H14.0625C12.5092 22.5 11.25 23.7592 11.25 25.3125V70.6875C11.25 72.2407 12.5092 73.5 14.0625 73.5H36.75C41.4024 73.5 45.1875 77.2851 45.1875 81.9375C45.1875 83.4907 46.4468 84.75 48 84.75C49.5532 84.75 50.8125 83.4907 50.8125 81.9375C50.8125 77.2851 54.5976 73.5 59.25 73.5H81.9375C83.4908 73.5 84.75 72.2407 84.75 70.6875V25.3125C84.75 23.7592 83.4908 22.5 81.9375 22.5Z" fill="#FF7707"/>
<path d="M81.9375 22.5H59.25C54.6549 22.5 50.5678 24.7151 48 28.1338V84.75C49.5533 84.75 50.8125 83.4907 50.8125 81.9375C50.8125 77.2851 54.5976 73.5 59.25 73.5H81.9375C83.4907 73.5 84.75 72.2407 84.75 70.6875V25.3125C84.75 23.7592 83.4907 22.5 81.9375 22.5Z" fill="#FFB401"/>
<path d="M35.3438 39.75H23.9062C22.353 39.75 21.0938 38.4908 21.0938 36.9375C21.0938 35.3842 22.353 34.125 23.9062 34.125H35.3438C36.897 34.125 38.1562 35.3842 38.1562 36.9375C38.1562 38.4908 36.897 39.75 35.3438 39.75Z" fill="white"/>
<path d="M35.3438 51H23.9062C22.353 51 21.0938 49.7408 21.0938 48.1875C21.0938 46.6342 22.353 45.375 23.9062 45.375H35.3438C36.897 45.375 38.1562 46.6342 38.1562 48.1875C38.1562 49.7408 36.897 51 35.3438 51Z" fill="white"/>
<path d="M35.3438 62.25H23.9062C22.353 62.25 21.0938 60.9908 21.0938 59.4375C21.0938 57.8842 22.353 56.625 23.9062 56.625H35.3438C36.897 56.625 38.1562 57.8842 38.1562 59.4375C38.1562 60.9908 36.897 62.25 35.3438 62.25Z" fill="white"/>
<path d="M72.0938 39.75H60.6562C59.103 39.75 57.8438 38.4908 57.8438 36.9375C57.8438 35.3842 59.103 34.125 60.6562 34.125H72.0938C73.647 34.125 74.9062 35.3842 74.9062 36.9375C74.9062 38.4908 73.647 39.75 72.0938 39.75Z" fill="white"/>
<path d="M72.0938 51H60.6562C59.103 51 57.8438 49.7408 57.8438 48.1875C57.8438 46.6342 59.103 45.375 60.6562 45.375H72.0938C73.647 45.375 74.9062 46.6342 74.9062 48.1875C74.9062 49.7408 73.647 51 72.0938 51Z" fill="white"/>
<path d="M72.0938 62.25H60.6562C59.103 62.25 57.8438 60.9908 57.8438 59.4375C57.8438 57.8842 59.103 56.625 60.6562 56.625H72.0938C73.647 56.625 74.9062 57.8842 74.9062 59.4375C74.9062 60.9908 73.647 62.25 72.0938 62.25Z" fill="white"/>
<path d="M70.5 0C70.7051 0 70.9099 0.0225 71.1101 0.0669375L87.9851 3.81694C89.2719 4.10288 90.1875 5.24437 90.1875 6.5625C90.1875 7.88063 89.2719 9.02213 87.9851 9.30806L71.1101 13.0581C70.9099 13.1025 70.7051 13.125 70.5 13.125C68.9467 13.125 67.6875 11.8658 67.6875 10.3125V2.8125C67.6875 1.25925 68.9467 0 70.5 0Z" fill="#FFE9D6"/>
<path d="M87.9851 9.30806L71.1101 13.0581C70.9099 13.1025 70.7051 13.125 70.5 13.125C68.9467 13.125 67.6875 11.8658 67.6875 10.3125V6.5625H90.1875C90.1875 7.88063 89.2719 9.02213 87.9851 9.30806Z" fill="#FFE9D6"/>
<path d="M8.625 13.125C7.07175 13.125 5.8125 11.8658 5.8125 10.3125V2.8125C5.8125 1.25925 7.07175 0 8.625 0H19.875C21.4283 0 22.6875 1.25925 22.6875 2.8125V10.3125C22.6875 11.8658 21.4283 13.125 19.875 13.125H8.625Z" fill="#FF7707"/>
<path d="M19.875 13.125H8.625C7.07175 13.125 5.8125 11.8658 5.8125 10.3125V6.5625H22.6875V10.3125C22.6875 11.8658 21.4283 13.125 19.875 13.125Z" fill="#FF7707"/>
<path d="M19.875 13.125V0H28.3125C29.8658 0 31.125 1.25925 31.125 2.8125V10.3125C31.125 11.8658 29.8658 13.125 28.3125 13.125H19.875Z" fill="#F9F1F1"/>
<path d="M28.3125 13.125H19.875V6.5625H31.125V10.3125C31.125 11.8658 29.8658 13.125 28.3125 13.125Z" fill="#E2DFF4"/>
<path d="M28.3125 0H70.5V13.125H28.3125V0Z" fill="#325873"/>
<path d="M28.3125 6.5625H70.5V13.125H28.3125V6.5625Z" fill="#325873"/>
</svg>
