<svg width="96" height="96" viewBox="0 0 96 96" fill="none" xmlns="http://www.w3.org/2000/svg">
<g clip-path="url(#clip0_20_13832)">
<path d="M96 16.5518V89.3794C96 93.0356 93.0356 96.0001 89.3793 96.0001H6.62069C5.7729 96.0065 4.93319 95.8376 4.15491 95.5038C1.64467 94.5081 -0.00242191 92.0795 2.67318e-06 89.3794V16.5518H96Z" fill="#FFE9D6"/>
<path d="M95.9994 16.5518V89.3794C95.9994 93.0356 93.035 96.0001 89.3787 96.0001H6.62008C5.77229 96.0065 4.93258 95.8376 4.1543 95.5038C26.449 90.3064 72.5789 72.9101 90.6371 16.5518H95.9994Z" fill="#FFE9D6"/>
<path d="M54.6207 29.793C50.9644 29.793 48 32.7574 48 36.4137V79.4481C48 75.7919 50.9644 72.8275 54.6207 72.8275H81.1034V29.793H54.6207Z" fill="#FFB401"/>
<path d="M89.3793 0H6.62069C2.96444 0 0 2.96444 0 6.62069V16.5517H96V6.62069C96 2.96444 93.0356 0 89.3793 0Z" fill="#325873"/>
<path d="M41.3792 29.793H14.8965V72.8275H41.3792C45.0355 72.8275 47.9999 75.7919 47.9999 79.4481V36.4137C47.9999 32.7574 45.0355 29.793 41.3792 29.793Z" fill="#FF7707"/>
<path d="M81.1035 79.4481H87.7242V36.4136H81.1035V79.4481Z" fill="#FFE9D6"/>
<path d="M54.6207 72.8276C50.9644 72.8276 48 75.7921 48 79.4483H81.1034V72.8276H54.6207Z" fill="#FEB7A3"/>
<path d="M81.1034 72.8276V76.138H54.6207C52.2559 76.1339 50.0706 77.3971 48.8939 79.4483H48C48 75.7921 50.9644 72.8276 54.6207 72.8276H81.1034Z" fill="#FEB7A3"/>
<path d="M14.8961 72.8274V36.4136H8.27539V79.4481H14.8961V72.8274Z" fill="#FFE9D6"/>
<path d="M41.3792 72.8276H14.8965V79.4483H47.9999C47.9999 75.7921 45.0355 72.8276 41.3792 72.8276Z" fill="#FEB7A3"/>
<path d="M47.9999 79.4483H47.1061C45.9302 77.3971 43.744 76.1339 41.3792 76.138H14.8965V72.8276H41.3792C45.0355 72.8276 47.9999 75.7921 47.9999 79.4483Z" fill="#FEB7A3"/>
<path d="M81.1035 36.4136H84.4138V79.4481H81.1035V36.4136Z" fill="#FFE9D6"/>
<path d="M11.5859 36.4136H14.8963V79.4481H11.5859V36.4136Z" fill="#FFE9D6"/>
<path d="M8.27627 9.93088C8.16554 9.92765 8.05482 9.91633 7.94572 9.89775C7.84146 9.87996 7.74124 9.84602 7.6475 9.79834C7.54162 9.76197 7.4406 9.71186 7.34766 9.64963C7.26199 9.58821 7.17955 9.52194 7.10116 9.45082C6.94841 9.29564 6.82961 9.10895 6.75364 8.90448C6.66878 8.70567 6.62352 8.4923 6.62109 8.27571C6.62352 7.83686 6.79566 7.4158 7.10116 7.1006L7.34766 6.90179C7.4406 6.83956 7.54162 6.78945 7.6475 6.75308C7.74124 6.7054 7.84146 6.67145 7.94572 6.65367C8.48963 6.55346 9.0497 6.71914 9.45138 7.1006L9.65019 7.34872C9.71242 7.44166 9.76253 7.54187 9.7989 7.64694C9.84739 7.73988 9.88052 7.8409 9.89669 7.94435C9.91689 8.05427 9.92821 8.16499 9.93144 8.27571C9.93629 8.49311 9.89103 8.70809 9.7989 8.90448C9.71889 9.10734 9.60089 9.29241 9.45138 9.45082C9.13456 9.75308 8.71431 9.92442 8.27627 9.93088Z" fill="#FFE9D6"/>
<path d="M14.8962 9.93127C14.6796 9.92885 14.4663 9.88359 14.2674 9.79873C14.0646 9.71872 13.8795 9.60072 13.7211 9.45121C13.0721 8.80223 13.0721 7.74997 13.7211 7.10099C14.3701 6.45201 15.4223 6.45201 16.0713 7.10099C16.1424 7.17938 16.2087 7.26263 16.2701 7.3491C16.3324 7.44205 16.3825 7.54226 16.4188 7.64733C16.4698 7.74512 16.5029 7.8518 16.5166 7.96171C16.5376 8.06516 16.549 8.17022 16.5514 8.2761C16.5562 8.71656 16.3833 9.14005 16.0713 9.45121C15.7602 9.76317 15.3367 9.93612 14.8962 9.93127Z" fill="#FFE9D6"/>
<path d="M21.5182 9.93119C20.8457 9.93523 20.238 9.53194 19.9802 8.91044C19.7224 8.28975 19.8654 7.57451 20.343 7.10091C20.7383 6.71944 21.2935 6.55295 21.8325 6.65398C21.9433 6.66933 22.0499 6.70328 22.1485 6.75338C22.2544 6.78975 22.3546 6.83986 22.4468 6.90209L22.6949 7.10091C23.335 7.75392 23.335 8.7981 22.6949 9.45112C22.6165 9.52224 22.5332 9.58851 22.4468 9.64994C22.3546 9.71217 22.2544 9.76228 22.1485 9.79864C22.0499 9.84875 21.9433 9.8827 21.8325 9.89805C21.7291 9.91745 21.624 9.92876 21.5182 9.93119Z" fill="#FFE9D6"/>
<path d="M56.2754 39.7241H72.8271V43.0345H56.2754V39.7241Z" fill="#FFE9D6"/>
<path d="M56.2754 49.6553H72.8271V52.9656H56.2754V49.6553Z" fill="#FFE9D6"/>
<path d="M56.2754 59.5864H72.8271V62.8968H56.2754V59.5864Z" fill="#FFE9D6"/>
<path d="M23.1719 39.7241H39.7236V43.0345H23.1719V39.7241Z" fill="#FFE9D6"/>
<path d="M23.1719 49.6553H39.7236V52.9656H23.1719V49.6553Z" fill="#FFE9D6"/>
<path d="M23.1719 59.5864H39.7236V62.8968H23.1719V59.5864Z" fill="#FFE9D6"/>
</g>
<defs>
<clipPath id="clip0_20_13832">
<rect width="96" height="96" fill="white"/>
</clipPath>
</defs>
</svg>
