<svg width="72" height="72" viewBox="0 0 72 72" fill="none" xmlns="http://www.w3.org/2000/svg">
<g clip-path="url(#clip0_440_20529)">
<path d="M37.3906 22.2873C36.7668 22.2873 36.1638 22.0098 35.7576 21.5129C35.2389 20.8785 35.1346 20.0012 35.4901 19.2629C35.5619 19.1137 37.2954 15.5678 41.3038 12.0577C44.9796 8.8389 51.3707 5.00195 60.9442 5.00195C62.1091 5.00195 63.0536 5.94639 63.0536 7.11133V14.2004C63.0536 15.1655 62.3985 16.0075 61.4631 16.2449L37.9097 22.2223C37.7374 22.2661 37.5632 22.2873 37.3906 22.2873Z" fill="#FFD99B"/>
<path d="M34.6102 22.2873C34.4375 22.2873 34.2634 22.2661 34.0914 22.2223L10.5379 16.2451C9.60244 16.0077 8.94727 15.1656 8.94727 14.2005V7.11133C8.94727 5.94639 9.8917 5.00195 11.0566 5.00195C20.6301 5.00195 27.0212 8.8389 30.697 12.0577C34.7054 15.5678 36.4389 19.1138 36.5108 19.2629C36.8661 20.0012 36.7618 20.8785 36.2433 21.5129C35.837 22.01 35.2342 22.2873 34.6102 22.2873V22.2873Z" fill="#FFD99B"/>
<path d="M37.3887 22.2917C37.0811 22.2917 36.7688 22.2243 36.4729 22.0818C35.4232 21.5766 34.9836 20.3126 35.4888 19.2629C35.5607 19.1137 37.2942 15.5678 41.3026 12.0577C44.9784 8.83891 51.3695 5.00195 60.943 5.00195C62.1079 5.00195 63.0523 5.94639 63.0523 7.11133C63.0523 8.27627 62.1079 9.2207 60.943 9.2207C54.3803 9.2207 48.754 11.2025 44.2207 15.1109C40.8 18.0601 39.3016 21.0693 39.2868 21.0994C38.924 21.8532 38.1724 22.2917 37.3887 22.2917V22.2917Z" fill="#FFD99B"/>
<path d="M34.6116 22.2877C33.8265 22.2877 33.0728 21.8474 32.7095 21.0927C32.698 21.0693 31.1998 18.0601 27.7789 15.1109C23.2456 11.2025 17.6193 9.2207 11.0566 9.2207C9.8917 9.2207 8.94727 8.27627 8.94727 7.11133C8.94727 5.94639 9.8917 5.00195 11.0566 5.00195C20.6301 5.00195 27.0212 8.83891 30.697 12.0577C34.7054 15.5678 36.4389 19.1138 36.5108 19.2629C37.016 20.3126 36.5747 21.5732 35.525 22.0783C35.2299 22.2205 34.9185 22.2877 34.6116 22.2877V22.2877Z" fill="#FFD99B"/>
<path d="M40.1727 66.9977C39.7866 66.9977 39.4015 66.8918 39.0625 66.6821C38.4413 66.2976 38.0625 65.6195 38.0625 64.889V20.1777C38.0625 19.3791 38.5135 18.6491 39.2274 18.2915C39.7542 18.0278 52.3309 11.832 69.8914 11.832C71.0564 11.832 72.0008 12.7765 72.0008 13.9414V58.6527C72.0008 59.8176 71.0564 60.7621 69.8914 60.7621C53.3764 60.7621 41.2351 66.7159 41.1143 66.7759C40.8172 66.9241 40.4946 66.9977 40.1727 66.9977Z" fill="#FF7707"/>
<path d="M31.8288 66.9982C31.4731 66.9982 31.1172 66.9084 30.7965 66.7284C30.6925 66.6706 19.8692 60.7621 2.10938 60.7621C0.944437 60.7621 0 59.8176 0 58.6527V13.9414C0 12.7765 0.944437 11.832 2.10938 11.832C21.0495 11.832 32.3878 18.0725 32.8611 18.3382C33.5263 18.7114 33.9382 19.4148 33.9382 20.1777V64.8889C33.9382 65.6378 33.541 66.3307 32.8946 66.7091C32.5657 66.9016 32.1974 66.9982 31.8288 66.9982V66.9982Z" fill="#FF7707"/>
<path d="M50.17 53.9755C49.2731 53.9755 48.4414 53.3989 48.1582 52.4981C47.8089 51.3869 48.4265 50.2027 49.538 49.8532C53.6314 48.5665 58.0375 47.6998 62.634 47.2778C63.7923 47.1695 64.8208 48.0255 64.9274 49.1855C65.0339 50.3455 64.1799 51.3724 63.0197 51.479C58.7215 51.8736 54.6112 52.6806 50.8032 53.8777C50.5925 53.9441 50.3794 53.9755 50.17 53.9755V53.9755Z" fill="#FFBD69"/>
<path d="M50.17 45.6589C49.273 45.6589 48.4414 45.0823 48.1582 44.1815C47.8089 43.0701 48.4266 41.8859 49.538 41.5366C53.6323 40.2497 58.0383 39.3832 62.634 38.9612C63.7923 38.8542 64.8208 39.7088 64.9274 40.8689C65.0339 42.0289 64.1799 43.0558 63.0197 43.1624C58.7222 43.557 54.612 44.364 50.8032 45.5612C50.5925 45.6274 50.3793 45.6589 50.17 45.6589V45.6589Z" fill="#FFBD69"/>
<path d="M50.1719 34.3886C53.3265 33.3971 57.5993 32.3816 62.8281 31.9017V24.1475C57.5993 24.6276 53.3265 25.6429 50.1719 26.6346V34.3886Z" fill="#FFA344"/>
<path d="M50.172 36.4981C49.7285 36.4981 49.2902 36.3582 48.9238 36.0893C48.3823 35.6919 48.0625 35.0605 48.0625 34.3887V26.6345C48.0625 25.7131 48.6604 24.8985 49.5393 24.6222C53.6334 23.3352 58.0394 22.4688 62.6353 22.0469C63.2254 21.9928 63.8118 22.1895 64.2498 22.5892C64.6879 22.989 64.9375 23.5544 64.9375 24.1474V31.9016C64.9375 32.9919 64.1067 33.9024 63.0209 34.0023C58.7234 34.3969 54.6132 35.2039 50.8044 36.4011C50.5971 36.4662 50.3838 36.4981 50.172 36.4981ZM52.2812 28.2064V31.5896C54.9876 30.8843 57.8108 30.3538 60.7188 30.0043V26.5011C57.7942 26.8764 54.9687 27.4475 52.2812 28.2064Z" fill="#FFBD69"/>
<path d="M40.2188 66.9984H31.7812V20.8809H40.2188V66.9984Z" fill="#DB5A06"/>
<path d="M69.8906 11.832C53.9876 11.832 42.1725 16.9132 39.6924 18.0683H32.3509C29.9094 16.8246 19.0512 11.832 2.10938 11.832C0.944437 11.832 0 12.7765 0 13.9414C0 15.1063 0.944437 16.0508 2.10938 16.0508C11.386 16.0508 18.6889 17.6719 23.1822 19.0318C28.0583 20.5078 30.773 22.0041 30.7998 22.0189C30.8011 22.0196 30.8024 22.0198 30.8036 22.0205C31.1072 22.1898 31.4565 22.2871 31.8288 22.2871H40.1711C40.5059 22.2871 40.8213 22.2071 41.1024 22.0681C41.1061 22.0669 41.1099 22.0666 41.1135 22.0648C41.2342 22.0046 53.3755 16.0508 69.8906 16.0508C71.0556 16.0508 72 15.1063 72 13.9414C72 12.7765 71.0556 11.832 69.8906 11.832V11.832Z" fill="#FFA344"/>
<path d="M71.9764 13.6436C71.8313 12.6201 70.9541 11.832 69.8905 11.832C53.9875 11.832 42.1724 16.9132 39.6923 18.0683H35.9766V22.2871H40.1711C40.506 22.2871 40.8214 22.2071 41.1025 22.0681C41.1061 22.0669 41.1099 22.0666 41.1136 22.0648C41.2343 22.0046 53.3755 16.0508 69.8907 16.0508C70.9542 16.0508 71.8316 15.2627 71.9766 14.2393V13.6436H71.9764Z" fill="#FFA344"/>
</g>
<defs>
<clipPath id="clip0_440_20529">
<rect width="72" height="72" fill="white"/>
</clipPath>
</defs>
</svg>
