<svg width="72" height="72" viewBox="0 0 72 72" fill="none" xmlns="http://www.w3.org/2000/svg">
<path d="M68.7321 15H38.5179C37.1273 15 36 16.1142 36 17.4886V67.2614C36 68.6358 37.1273 69.75 38.5179 69.75H68.7321C70.1227 69.75 71.25 68.6358 71.25 67.2614V17.4886C71.25 16.1142 70.1227 15 68.7321 15Z" fill="#325873"/>
<path d="M61.25 32.25H28.75C27.3693 32.25 26.25 33.3693 26.25 34.75V67.25C26.25 68.6307 27.3693 69.75 28.75 69.75H61.25C62.6307 69.75 63.75 68.6307 63.75 67.25V34.75C63.75 33.3693 62.6307 32.25 61.25 32.25Z" fill="#DB5A06"/>
<path d="M53.25 37.5H63.75V47.25H53.25V37.5Z" fill="#FFBD69"/>
<path d="M58.5 45C59.7426 45 60.75 43.8247 60.75 42.375C60.75 40.9253 59.7426 39.75 58.5 39.75C57.2574 39.75 56.25 40.9253 56.25 42.375C56.25 43.8247 57.2574 45 58.5 45Z" fill="#FEEECD"/>
<path d="M50.7692 9.75H23.4808C22.1107 9.75 21 10.8693 21 12.25V67.25C21 68.6307 22.1107 69.75 23.4808 69.75H50.7692C52.1393 69.75 53.25 68.6307 53.25 67.25V12.25C53.25 10.8693 52.1393 9.75 50.7692 9.75Z" fill="#FFD99B"/>
<path d="M48.75 15H53.25V19.5H48.75V15Z" fill="#FFBD69"/>
<path d="M46.25 2.25H13.75C12.3693 2.25 11.25 3.36929 11.25 4.75V67.25C11.25 68.6307 12.3693 69.75 13.75 69.75H46.25C47.6307 69.75 48.75 68.6307 48.75 67.25V4.75C48.75 3.36929 47.6307 2.25 46.25 2.25Z" fill="#325873"/>
<path d="M35.7955 2.25H13.7045C12.3489 2.25 11.25 3.36929 11.25 4.75V67.25C11.25 68.6307 12.3489 69.75 13.7045 69.75H35.7955C37.1511 69.75 38.25 68.6307 38.25 67.25V4.75C38.25 3.36929 37.1511 2.25 35.7955 2.25Z" fill="#325873"/>
<path d="M35.75 22.5H3.25C1.86929 22.5 0.75 23.6134 0.75 24.9868V67.2632C0.75 68.6366 1.86929 69.75 3.25 69.75H35.75C37.1307 69.75 38.25 68.6366 38.25 67.2632V24.9868C38.25 23.6134 37.1307 22.5 35.75 22.5Z" fill="#FF7707"/>
<path d="M25.9773 22.5H3.27273C1.87946 22.5 0.75 23.6134 0.75 24.9868V67.2632C0.75 68.6366 1.87946 69.75 3.27273 69.75H25.9773C27.3705 69.75 28.5 68.6366 28.5 67.2632V24.9868C28.5 23.6134 27.3705 22.5 25.9773 22.5Z" fill="#FF7707"/>
<path d="M33 27H38.25V31.5H33V27Z" fill="#FFD99B"/>
<path d="M33 59.25H38.25V64.5H33V59.25Z" fill="#FFD99B"/>
<path d="M46 46V16C46 15.3096 45.4404 14.75 44.75 14.75H42.25C41.5596 14.75 41 15.3096 41 16V46C41 46.6904 41.5596 47.25 42.25 47.25H44.75C45.4404 47.25 46 46.6904 46 46Z" fill="#AAB3B9"/>
<path d="M46 63.5V53.5C46 52.8096 45.4404 52.25 44.75 52.25H42.25C41.5596 52.25 41 52.8096 41 53.5V63.5C41 64.1904 41.5596 64.75 42.25 64.75H44.75C45.4404 64.75 46 64.1904 46 63.5Z" fill="#AAB3B9"/>
<path d="M43.5 12.25C44.8807 12.25 46 11.1307 46 9.75C46 8.36929 44.8807 7.25 43.5 7.25C42.1193 7.25 41 8.36929 41 9.75C41 11.1307 42.1193 12.25 43.5 12.25Z" fill="#AAB3B9"/>
</svg>
