<svg width="72" height="72" viewBox="0 0 72 72" fill="none" xmlns="http://www.w3.org/2000/svg">
<path d="M29.2573 54.1123V58.5449C29.2573 60.24 28.4451 61.8141 27.111 62.7039L23.8887 64.8534H48.111L44.8888 62.7039C43.5547 61.8141 42.7424 60.24 42.7424 58.5449V54.1123C38.3081 54.1123 33.6915 54.1123 29.2573 54.1123Z" fill="#325873"/>
<path d="M50.3665 64.6973H21.6341C20.8341 64.6973 20.1855 65.3458 20.1855 66.1458V67.7679C20.1855 68.568 20.8341 69.2165 21.6341 69.2165H50.3665C51.1665 69.2165 51.8151 68.568 51.8151 67.7679V66.1458C51.8151 65.3458 51.1665 64.6973 50.3665 64.6973Z" fill="#325873"/>
<path d="M67.825 2.7832H4.17503C1.87285 2.7832 0 4.65605 0 6.95823V50.1282C0 52.4304 1.87285 54.3032 4.17503 54.3032H67.825C70.1272 54.3032 72 52.4304 72 50.1282V6.95823C72 4.65605 70.1272 2.7832 67.825 2.7832Z" fill="#325873"/>
<path d="M4.51953 12.3859V12.6756V49.1834C4.51953 49.5153 4.78841 49.7841 5.12028 49.7841H66.8804C67.2121 49.7841 67.4811 49.5153 67.4811 49.1834C67.4811 48.2101 67.4811 22.993 67.4811 12.3857H4.51953V12.3859Z" fill="#FFFBF7"/>
<path d="M66.8799 7.30273H10.8984V12.6756H67.4807C67.4807 10.1608 67.4807 8.40918 67.4807 7.90335C67.4805 7.57161 67.2117 7.30273 66.8799 7.30273Z" fill="#FFA344"/>
<path d="M11.0437 7.30273H5.12028C4.78855 7.30273 4.51953 7.57161 4.51953 7.90348V12.6757H11.0437V7.30273Z" fill="#FC5B23"/>
<path d="M53.9484 20.7178H51.4646V37.3169C51.4646 38.2161 50.6826 38.9196 49.7897 38.814C48.8219 38.6997 47.6395 38.2617 45.4553 37.0741C41.8994 35.1408 38.6735 36.9485 37.0684 38.1954C36.7624 38.4331 36.3865 38.5608 35.9991 38.5608C35.6116 38.5608 35.2358 38.4331 34.9297 38.1954C33.3248 36.9485 30.0987 35.1409 26.5428 37.0741C24.3586 38.2617 23.1764 38.6997 22.2085 38.814C21.3155 38.9195 20.5335 38.2161 20.5335 37.3169V20.7178H18.0498C17.2284 20.7178 16.5625 21.3836 16.5625 22.205V41.7074C16.5625 42.5288 17.2284 43.1947 18.0498 43.1947H31.243C31.9135 43.1947 32.5415 43.5676 32.823 44.1761C33.34 45.2931 34.47 46.0679 35.7817 46.0679C37.0933 46.0679 38.2235 45.2931 38.7403 44.1761C39.0218 43.5676 39.6498 43.1947 40.3203 43.1947H53.9482C54.7696 43.1947 55.4355 42.5288 55.4355 41.7074V22.205C55.4356 21.3836 54.7698 20.7178 53.9484 20.7178Z" fill="#FF7707"/>
<path d="M50.9754 19.0002C50.7144 19.1452 50.4077 19.214 50.0855 19.1761C49.1177 19.0627 47.6445 18.625 45.4571 17.4356C40.3953 14.6836 36.0009 19.5128 36.0009 19.5128L35.2871 20.4149V38.1974L36.0009 39.2854C36.3883 39.2854 36.7642 39.1577 37.0702 38.92C38.6752 37.6731 41.9013 35.8655 45.457 37.7988C47.6412 38.9864 49.1132 39.4244 50.081 39.5388C50.974 39.6442 51.756 38.9408 51.756 38.0417V19.4664C51.7563 19.0603 51.3185 18.8098 50.9754 19.0002Z" fill="#FEEECD"/>
<path d="M47.9317 23.8875C47.0299 23.5711 46.0222 23.1112 44.9361 22.5209C43.3391 21.6528 41.635 21.5762 39.8711 22.2933C39.3152 22.5192 38.6813 22.2521 38.4553 21.6963C38.2293 21.1404 38.4966 20.5064 39.0525 20.2806C41.4153 19.3198 43.8086 19.4346 45.9741 20.6119C46.9581 21.1468 47.8588 21.559 48.651 21.837C49.2173 22.0356 49.5152 22.6557 49.3166 23.222C49.1181 23.7883 48.4978 24.086 47.9317 23.8875Z" fill="#FFBD69"/>
<path d="M47.9317 27.8318C47.0299 27.5154 46.0222 27.0556 44.9361 26.4652C43.3391 25.597 41.635 25.5205 39.8711 26.2377C39.3152 26.4634 38.6813 26.1964 38.4553 25.6406C38.2293 25.0847 38.4966 24.4508 39.0525 24.2249C41.4153 23.264 43.8086 23.3791 45.9741 24.5562C46.9581 25.0912 47.8588 25.5034 48.651 25.7814C49.2173 25.9799 49.5152 26.6001 49.3166 27.1664C49.1181 27.7327 48.4978 28.0304 47.9317 27.8318Z" fill="#FFBD69"/>
<path d="M47.9317 31.7762C47.0299 31.4598 46.0222 30.9999 44.9361 30.4096C43.3391 29.5414 41.635 29.4647 39.8711 30.1821C39.3152 30.4076 38.6813 30.1407 38.4553 29.585C38.2293 29.0291 38.4966 28.3952 39.0525 28.1693C41.4153 27.2084 43.8086 27.3233 45.9741 28.5006C46.9581 29.0356 47.8588 29.4477 48.651 29.7257C49.2173 29.9243 49.5152 30.5445 49.3166 31.1108C49.1181 31.6771 48.4978 31.9748 47.9317 31.7762Z" fill="#FFBD69"/>
<path d="M47.9317 35.7215C47.0299 35.4051 46.0222 34.9452 44.9361 34.3549C43.3391 33.4866 41.635 33.41 39.8711 34.1273C39.3152 34.3532 38.6813 34.086 38.4553 33.5302C38.2293 32.9743 38.4966 32.3404 39.0525 32.1146C41.4153 31.1538 43.8086 31.2686 45.9741 32.4459C46.9581 32.9808 47.8588 33.393 48.651 33.671C49.2173 33.8696 49.5152 34.4897 49.3166 35.056C49.1181 35.6223 48.4978 35.92 47.9317 35.7215Z" fill="#FFBD69"/>
<path d="M21.0249 19.0002C21.2859 19.1452 21.5926 19.214 21.9148 19.1761C22.8825 19.0627 24.3557 18.625 26.5432 17.4356C31.605 14.6836 35.9993 19.5128 35.9993 19.5128V39.2855C35.6119 39.2855 35.236 39.1578 34.93 38.9202C33.3251 37.6733 30.099 35.8657 26.5432 37.799C24.359 38.9866 22.8869 39.4246 21.9191 39.5389C21.0262 39.6444 20.2441 38.941 20.2441 38.0418V19.4664C20.2441 19.0603 20.6818 18.8098 21.0249 19.0002Z" fill="#FEEECD"/>
<path d="M22.6826 23.2212C22.4841 22.655 22.7819 22.0348 23.3481 21.8361C24.1405 21.5581 25.0412 21.1459 26.0251 20.611C28.1909 19.4334 30.5843 19.3189 32.9467 20.2797C33.5026 20.5058 33.7699 21.1396 33.5439 21.6954C33.3178 22.2513 32.6839 22.5189 32.1281 22.2925C30.3643 21.575 28.66 21.6518 27.0631 22.52C25.9773 23.1103 24.9695 23.5702 24.0676 23.8866C23.5016 24.0851 22.8815 23.7876 22.6826 23.2212Z" fill="#FFBD69"/>
<path d="M22.6826 27.1664C22.4841 26.6003 22.7819 25.9801 23.3481 25.7814C24.1405 25.5034 25.0412 25.0912 26.0251 24.5563C28.1909 23.3788 30.5843 23.2642 32.9467 24.225C33.5026 24.4511 33.7699 25.0849 33.5439 25.6406C33.3178 26.1965 32.6839 26.4641 32.1281 26.2377C30.3643 25.5204 28.66 25.5969 27.0631 26.4653C25.9773 27.0556 24.9695 27.5154 24.0676 27.8319C23.5016 28.0304 22.8815 27.7329 22.6826 27.1664Z" fill="#FFBD69"/>
<path d="M22.6826 31.1107C22.4841 30.5446 22.7819 29.9244 23.3481 29.7257C24.1405 29.4477 25.0412 29.0355 26.0251 28.5006C28.1909 27.323 30.5843 27.2087 32.9467 28.1693C33.5026 28.3954 33.7699 29.0292 33.5439 29.585C33.3178 30.141 32.6839 30.4085 32.1281 30.1821C30.3643 29.4647 28.66 29.5414 27.0631 30.4096C25.9773 30.9999 24.9695 31.4598 24.0676 31.7762C23.5016 31.9747 22.8815 31.6772 22.6826 31.1107Z" fill="#FFBD69"/>
<path d="M22.6826 35.0561C22.4841 34.4899 22.7819 33.8697 23.3481 33.671C24.1405 33.393 25.0412 32.9809 26.0251 32.4459C28.1909 31.2685 30.5843 31.1539 32.9467 32.1146C33.5026 32.3407 33.7699 32.9745 33.5439 33.5303C33.3178 34.0863 32.6839 34.3538 32.1281 34.1274C30.3643 33.41 28.66 33.4867 27.0631 34.3549C25.9773 34.9452 24.9695 35.4051 24.0676 35.7215C23.5016 35.9201 22.8815 35.6225 22.6826 35.0561Z" fill="#FFBD69"/>
</svg>
