<svg width="72" height="72" viewBox="0 0 72 72" fill="none" xmlns="http://www.w3.org/2000/svg">
<path d="M69.8906 60.75L36 57.375L2.10938 60.75C0.945 60.75 0 61.695 0 62.8594V65.6719C0 69.1664 2.83359 72 6.32812 72H65.6719C69.1664 72 72 69.1664 72 65.6719V62.8594C72 61.695 71.055 60.75 69.8906 60.75Z" fill="#DB5A06"/>
<path d="M67.5 17.7188V58.6406H4.5V17.7188C4.5 15.3886 6.38859 13.5 8.71875 13.5H63.2812C65.6114 13.5 67.5 15.3886 67.5 17.7188Z" fill="#FFFBF7"/>
<path d="M63.2812 11.3906H8.71875C5.22422 11.3906 2.39062 14.2242 2.39062 17.7188V60.75H69.6094V17.7188C69.6094 14.2242 66.7758 11.3906 63.2812 11.3906ZM65.3906 56.5312H6.60938V17.7188C6.60938 16.5558 7.55578 15.6094 8.71875 15.6094H63.2812C64.4442 15.6094 65.3906 16.5558 65.3906 17.7188V56.5312Z" fill="#FF7707"/>
<path d="M58.5 0H45C41.6602 0 38.4398 1.27406 36 3.49031C33.5602 1.27406 30.3398 0 27 0H13.5C12.3356 0 11.3906 0.945 11.3906 2.10938V38.25C11.3906 39.4144 12.3356 40.3594 13.5 40.3594H27C29.8617 40.3594 32.5955 41.7262 34.3125 44.0156C34.7105 44.5472 35.3363 44.8594 36 44.8594C36.6637 44.8594 37.2895 44.5472 37.6875 44.0156C39.4045 41.7262 42.1383 40.3594 45 40.3594H58.5C59.6644 40.3594 60.6094 39.4144 60.6094 38.25V2.10938C60.6094 0.945 59.6644 0 58.5 0Z" fill="#FEEECD"/>
<path d="M60.6094 2.10938V38.25C60.6094 39.4144 59.6644 40.3594 58.5 40.3594H45C42.1383 40.3594 39.4045 41.7262 37.6875 44.0156C37.2895 44.5472 36.6637 44.8594 36 44.8594V3.49031C38.4398 1.27406 41.6602 0 45 0H58.5C59.6644 0 60.6094 0.945 60.6094 2.10938Z" fill="#FFD99B"/>
<path d="M50.4844 50.625C50.4844 51.7894 49.5394 52.7344 48.375 52.7344H23.625C22.4606 52.7344 21.5156 51.7894 21.5156 50.625C21.5156 49.4606 22.4606 48.5156 23.625 48.5156H48.375C49.5394 48.5156 50.4844 49.4606 50.4844 50.625Z" fill="#FFBD69"/>
<path d="M51.75 31.3594H42.75C41.5851 31.3594 40.6406 30.4149 40.6406 29.25C40.6406 28.0851 41.5851 27.1406 42.75 27.1406H51.75C52.9149 27.1406 53.8594 28.0851 53.8594 29.25C53.8594 30.4149 52.9149 31.3594 51.75 31.3594Z" fill="#FFBD69"/>
<path d="M51.75 22.3594H42.75C41.5851 22.3594 40.6406 21.4149 40.6406 20.25C40.6406 19.0851 41.5851 18.1406 42.75 18.1406H51.75C52.9149 18.1406 53.8594 19.0851 53.8594 20.25C53.8594 21.4149 52.9149 22.3594 51.75 22.3594Z" fill="#FFBD69"/>
<path d="M51.75 13.3594H42.75C41.5851 13.3594 40.6406 12.4149 40.6406 11.25C40.6406 10.0851 41.5851 9.14062 42.75 9.14062H51.75C52.9149 9.14062 53.8594 10.0851 53.8594 11.25C53.8594 12.4149 52.9149 13.3594 51.75 13.3594Z" fill="#FFBD69"/>
<path d="M29.25 31.3594H20.25C19.0851 31.3594 18.1406 30.4149 18.1406 29.25C18.1406 28.0851 19.0851 27.1406 20.25 27.1406H29.25C30.4149 27.1406 31.3594 28.0851 31.3594 29.25C31.3594 30.4149 30.4149 31.3594 29.25 31.3594Z" fill="#FFBD69"/>
<path d="M29.25 22.3594H20.25C19.0851 22.3594 18.1406 21.4149 18.1406 20.25C18.1406 19.0851 19.0851 18.1406 20.25 18.1406H29.25C30.4149 18.1406 31.3594 19.0851 31.3594 20.25C31.3594 21.4149 30.4149 22.3594 29.25 22.3594Z" fill="#FFBD69"/>
<path d="M29.25 13.3594H20.25C19.0851 13.3594 18.1406 12.4149 18.1406 11.25C18.1406 10.0851 19.0851 9.14062 20.25 9.14062H29.25C30.4149 9.14062 31.3594 10.0851 31.3594 11.25C31.3594 12.4149 30.4149 13.3594 29.25 13.3594Z" fill="#FFBD69"/>
</svg>
